<?xml version="1.0" encoding="utf-8"?>
<!-- Generator: Adobe Illustrator 23.1.1, SVG Export Plug-In . SVG Version: 6.00 Build 0)  -->
<svg version="1.1" id="Capa_1" xmlns="http://www.w3.org/2000/svg" xmlns:xlink="http://www.w3.org/1999/xlink" x="0px" y="0px"
	 viewBox="0 0 400 400" style="enable-background:new 0 0 400 400;" xml:space="preserve">
<style type="text/css">
	.st0{fill:#E7E7E5;}
	.st1{fill:none;stroke:#E7E7E5;stroke-width:10.2257;stroke-miterlimit:10;}
</style>
<g>
	<path class="st0" d="M189.6,54.3C124.8,66.1,48.4,132.2,49.9,209.5c1,51.5,35.5,100.3,77,122c43.1,22.5,99.9,19,142.7-3.3
		c41.2-21.4,73.8-64.7,79.5-114.3c5.6-48.1-14.9-98.2-49.9-127.9s-82.7-39.2-125.7-27.8C129.6,69.8,93.5,101.6,68,142"/>
</g>
<g>
	<path class="st1" d="M186.8,14.9C104.5,30,7.4,113.8,9.4,212.1c1.3,65.4,45.1,127.4,97.8,154.9c54.7,28.5,126.9,24.1,181.3-4.2
		c52.3-27.2,93.7-82.2,101-145.2c7.1-61.1-18.9-124.7-63.3-162.4s-105-49.8-159.6-35.3C110.6,34.7,64.7,75,32.4,126.4"/>
</g>
</svg>
