<svg width="253" height="95" viewBox="0 0 253 95" fill="none" xmlns="http://www.w3.org/2000/svg">
<path d="M193.17 6.62129C139.396 -7.79653 76.8294 7.30017 28.1418 36.4939C20.1759 41.2704 12.3184 46.5646 7.00022 53.5124C1.68203 60.4603 -0.730277 69.4096 2.92187 76.5879C7.51986 85.6271 19.8884 89.3804 31.3981 91.1642C79.6846 98.6545 130.668 86.2161 178.353 71.0956C201.07 63.8948 224.047 55.8023 242.732 42.2289C245.787 40.0056 248.805 37.5372 250.356 34.4198C252.555 29.9867 251.372 24.9594 248.724 21.0041C241.133 9.65402 224.046 6.27433 208.517 4.6743C151.56 -1.15012 92.9161 3.81039 36.6723 19.2102" stroke="#111111" stroke-width="1.5" stroke-miterlimit="10" stroke-linecap="round" stroke-linejoin="round"/>
</svg>
