<svg xmlns="http://www.w3.org/2000/svg" width="259.96" height="102.212" viewBox="0 0 259.96 102.212">
  <path id="Trazado_21" data-name="Trazado 21" d="M918.621,556.724c-52.45-27.091-117.631-20.488-170.628,5.518-8.671,4.255-17.3,9.149-23.579,16.486s-9.883,17.6-7.129,26.855c3.467,11.654,15.474,18.408,26.87,22.649,47.809,17.8,100.941,12.256,151.09,2.9,23.891-4.454,48.161-9.927,68.808-22.742,3.377-2.1,6.748-4.5,8.721-7.945,2.8-4.9,2.26-11.13.1-16.346-6.189-14.966-23.012-22.137-38.493-26.894a408.5,408.5,0,0,0-175.516-14.075" transform="translate(-715.584 -538.425)" fill="none" stroke="#f0cf7c" stroke-linecap="round" stroke-linejoin="round" stroke-miterlimit="10" stroke-width="1.5"/>
</svg>
