<?xml version="1.0" encoding="utf-8"?>
<!-- Generator: Adobe Illustrator 23.1.1, SVG Export Plug-In . SVG Version: 6.00 Build 0)  -->
<svg version="1.1" id="Capa_1" xmlns="http://www.w3.org/2000/svg" xmlns:xlink="http://www.w3.org/1999/xlink" x="0px" y="0px"
	 viewBox="0 0 400 400" style="enable-background:new 0 0 400 400;" xml:space="preserve">
<style type="text/css">
	.st0{fill:#111111;}
</style>
<g>
	<g>
		<path class="st0" d="M100.4,104c-8.8-1-13.3,9.4-16.6,15.9c-5.1,10.1-10.1,20.2-15.1,30.4c-10,20.2-20,40.6-29.8,60.9
			c-5.6,11.5-11.1,23.1-16.6,34.7c-0.3,0.6-0.3,1.4,0.2,1.8c23.1,20.2,46.3,40.5,69.3,60.7c5.7,5,11.4,10,17.1,15
			c5.2,4.5,10.1,9.5,16.1,12.9c6,3.3,12.7,4,19.4,3.9c7.5,0,15-0.3,22.5-0.3c30.5-0.1,61.1,1,91.5,3.9c7.4,0.7,14.8,1.5,22.2,2.3
			c1.8,0.2,3.7,0.5,5.5,0.6c1.4,0.1,2.7-0.3,3.5-1.6c0.8-1.4,1.1-3.1,1.6-4.5c0.6-1.8,1.2-3.6,1.9-5.3c5.4-14,11.2-27.9,17.3-41.7
			c12-27.3,25.3-54.1,39.8-80.2c1.8-3.2,3.6-6.4,5.4-9.5c0.3-0.6,0.2-1.4-0.2-1.8c-30.4-29.4-60.8-58.9-91.2-88.2
			c-6.7-6.4-13.1-14.4-22.6-16c-4.9-0.8-9.7-0.5-14.6-0.5c-5.3,0-10.5,0.1-15.7,0.2c-20.7,0.4-41.5,1.2-62.2,2.5
			c-23.5,1.4-47.1,3.5-70.6,6.1c-1.9,0.2-1.9,3.2,0,3c41.3-4.6,82.7-7.2,124.3-8.2c10.2-0.2,20.4-0.4,30.7-0.4
			c4.7,0,9.4,0.2,13.7,2.5c4.2,2.2,7.4,5.9,10.7,9c15.1,14.6,30.1,29.1,45.2,43.7c16.8,16.3,33.6,32.5,50.3,48.7
			c-0.1-0.6-0.2-1.2-0.2-1.8c-14.5,25.4-27.9,51.4-40,78c-6.1,13.3-11.8,26.7-17.3,40.2c-2.8,6.8-5.6,13.7-7.9,20.6
			c-0.2,0.5-0.4,2-0.8,2.3c-0.5,0.4-1.6,0-2.2-0.1c-1.9-0.2-3.9-0.4-5.8-0.6c-3.7-0.4-7.2-0.8-10.9-1.1c-29.7-3.1-59.6-4.6-89.4-4.9
			c-7.5-0.1-15-0.1-22.5,0c-6.9,0.1-14.2,0.8-21.1-0.4c-6.9-1.2-12.2-5.1-17.4-9.5c-5.6-4.9-11.1-9.7-16.7-14.6
			c-22.6-19.9-45.3-39.6-67.8-59.5c-2.8-2.5-5.7-5-8.4-7.3c0.1,0.6,0.2,1.2,0.2,1.8c9.4-19.9,18.9-39.6,28.5-59.4
			s19.4-39.4,29.2-59.1c2.5-5,4.8-10.2,7.6-14.9c2.2-3.6,5.5-7.5,10.1-7C102.3,107.2,102.3,104.2,100.4,104L100.4,104z"/>
	</g>
</g>
<g>
	<g>
		<path class="st0" d="M235.2,122.5c-6.4,15.6-12.3,31.5-17.9,47.3c-5.6,16-10.6,32.1-15.3,48.2c-2.7,9.1-5.2,18.4-7.5,27.6
			c-0.5,1.9,2.4,2.7,2.9,0.8c4.2-16.4,8.8-32.6,13.9-48.6s10.5-32.1,16.5-47.8c3.4-8.9,6.8-17.9,10.4-26.7
			C238.8,121.5,235.9,120.7,235.2,122.5L235.2,122.5z"/>
	</g>
</g>
<g>
	<g>
		<path class="st0" d="M41.1,252.3c16,2.2,32.1,3.5,48.1,3.7c16.2,0.2,32.3-0.6,48.3-2.4c9-1,18.1-2.4,27.1-4.1
			c1.9-0.4,1.1-3.2-0.8-2.9c-31.3,5.9-63.3,7.6-95.1,5.6c-9-0.6-18-1.5-26.9-2.8c-0.8-0.1-1.6,0.2-1.8,1
			C39.9,251.2,40.3,252.2,41.1,252.3L41.1,252.3z"/>
	</g>
</g>
<g>
	<g>
		<path class="st0" d="M196.5,256.9c18.6,18.5,36.6,37.3,54.3,56.7c5,5.5,9.9,10.9,14.9,16.5c1.3,1.4,3.4-0.7,2.1-2.1
			c-17.4-19.6-35.2-38.6-53.6-57.4c-5.2-5.3-10.3-10.5-15.6-15.7C197.2,253.4,195.1,255.5,196.5,256.9L196.5,256.9z"/>
	</g>
</g>
<g>
	<path class="st0" d="M112.5,132.6c-3.3,0.8-6.8,1.9-8.6,4.8c-3,4.6,1,11.4,6.4,12.1c5.4,0.7,10.6-3.6,12.2-8.7
		c0.8-2.5,0.8-5.4-0.5-7.7c-2.1-3.9-7.2-5.4-11.5-4.4c-4.4,0.9-9.9,7.2-7.5,12.4"/>
	<g>
		<path class="st0" d="M112.1,131.2c-3.1,0.7-6.3,1.7-8.4,4.1c-2,2.1-2.7,5-2.1,7.7c0.6,2.7,2.4,5.1,4.7,6.6c2.5,1.6,5.7,1.9,8.4,1
			c6.3-2,10.5-8.7,9.5-15.2c-1-6.6-8.1-9.4-14.1-8.2c-6.1,1.3-11.2,8.6-8.6,14.6c0.3,0.7,1.4,0.9,2.1,0.5c0.8-0.4,0.9-1.3,0.5-2.1
			c-1.7-3.9,2.2-8.4,5.6-9.8c3.8-1.6,9.6-0.1,11.2,4c1.9,4.8-1.2,10.4-5.5,12.7c-2,1.1-4.5,1.5-6.7,0.6c-1.8-0.8-3.2-2.3-4-4.1
			c-0.9-1.9-0.8-4.2,0.5-5.9c1.8-2.2,4.9-3,7.4-3.7C114.7,133.6,113.9,130.7,112.1,131.2L112.1,131.2z"/>
	</g>
</g>
<g>
	<path class="st0" d="M160.8,202.4c-3.3,0.8-6.8,1.9-8.6,4.8c-3,4.6,1,11.4,6.4,12.1c5.4,0.7,10.6-3.6,12.2-8.7
		c0.8-2.5,0.8-5.4-0.5-7.7c-2.1-3.9-7.2-5.4-11.5-4.4c-4.4,0.9-9.9,7.2-7.5,12.4"/>
	<g>
		<path class="st0" d="M160.4,200.9c-3.1,0.7-6.3,1.7-8.4,4.1c-2,2.1-2.7,5-2.1,7.7c0.6,2.7,2.4,5.1,4.7,6.6c2.5,1.6,5.7,1.9,8.4,1
			c6.3-2,10.5-8.7,9.5-15.2c-1-6.6-8.1-9.4-14.1-8.2c-6.1,1.3-11.2,8.6-8.6,14.6c0.3,0.7,1.4,0.9,2.1,0.5c0.8-0.4,0.9-1.3,0.5-2.1
			c-1.7-3.9,2.2-8.4,5.6-9.8c3.8-1.6,9.6-0.1,11.2,4c1.9,4.8-1.2,10.4-5.5,12.7c-2,1.1-4.5,1.5-6.7,0.6c-1.8-0.8-3.2-2.3-4-4.1
			c-0.9-1.9-0.8-4.2,0.5-5.9c1.8-2.2,4.9-3,7.4-3.7C163.1,203.4,162.3,200.5,160.4,200.9L160.4,200.9z"/>
	</g>
</g>
<g>
	<path class="st0" d="M152.8,297.2c-2-1.3-4.9,0.2-5.8,2.4c-0.8,2.2,0,4.8,1.5,6.7c3.9,4.9,12.3,5.1,16.4,0.4c4.1-4.7,2.5-13.1-3-16
		s-13.3,0.7-14.7,6.7"/>
	<g>
		<path class="st0" d="M153.4,295.9c-2.6-1.5-5.8-0.3-7.3,2.1c-1.8,2.8-0.8,6.5,1.1,8.9c3.2,4.2,9.3,5.6,14.2,3.7
			c5.1-1.9,7.7-6.9,7.1-12.2c-0.7-5.3-4.4-9.6-9.7-10.3c-5.7-0.6-11.6,3.2-13,8.8c-0.4,1.9,2.5,2.7,2.9,0.8c0.9-3.7,4.3-6.3,7.9-6.7
			c3.8-0.4,7.1,1.8,8.4,5.3c1.3,3.5,0.7,7.7-2.3,10.1c-2.9,2.4-7.3,2.6-10.6,0.8c-2.1-1.1-3.9-3.3-4-5.7c0-1.1,0.3-2.1,1.2-2.8
			c0.8-0.6,1.8-0.8,2.6-0.3C153.6,299.4,155.1,296.8,153.4,295.9L153.4,295.9z"/>
	</g>
</g>
<g>
	<path class="st0" d="M225.9,243.5c-2-1.3-4.9,0.2-5.8,2.4c-0.9,2.2,0,4.8,1.5,6.7c3.9,4.9,12.3,5.1,16.4,0.4c4.1-4.7,2.5-13.1-3-16
		c-5.5-2.9-13.3,0.7-14.7,6.7"/>
	<g>
		<path class="st0" d="M226.7,242.3c-2.6-1.5-5.8-0.3-7.3,2.1c-1.8,2.8-0.8,6.5,1.1,8.9c3.2,4.2,9.3,5.6,14.2,3.7
			c5.1-1.9,7.7-6.9,7.1-12.2c-0.7-5.3-4.4-9.6-9.7-10.3c-5.7-0.6-11.6,3.2-13,8.8c-0.4,1.9,2.5,2.7,2.9,0.8c0.9-3.7,4.3-6.3,7.9-6.7
			c3.8-0.4,7.1,1.8,8.4,5.3c1.3,3.5,0.7,7.7-2.3,10.1c-2.9,2.4-7.3,2.6-10.6,0.8c-2.1-1.1-3.9-3.3-4-5.7c0-1.1,0.3-2.1,1.2-2.8
			c0.8-0.6,1.8-0.8,2.6-0.3C226.9,245.8,228.4,243.2,226.7,242.3L226.7,242.3z"/>
	</g>
</g>
<g>
	<path class="st0" d="M317.9,209.8c1.9-1.4,1.8-4.6,0-6.2c-1.7-1.6-4.4-1.9-6.7-1.2c-6,1.7-9.4,9.3-6.7,14.9
		c2.8,5.6,11,7.4,15.9,3.5c4.9-4,4.6-12.5-0.5-16.2"/>
	<g>
		<path class="st0" d="M318.7,211.1c2.3-1.8,2.8-5,1.2-7.4c-1.7-2.8-5.3-3.5-8.2-2.9c-5.4,1-9,6.2-9.5,11.4
			c-0.5,5.5,3.2,10.1,8.3,11.6c5,1.5,10.7-0.2,13.4-4.9c2.9-5.2,1.6-12.1-3.2-15.6c-0.7-0.5-1.7-0.1-2.1,0.5
			c-0.4,0.8-0.1,1.6,0.5,2.1c3,2.2,3.9,6.6,2.8,9.9c-1.2,3.8-4.7,5.8-8.4,5.6c-3.7-0.2-7.2-2.6-8.2-6.3c-0.9-3.7,0.8-7.8,3.8-10
			c1.9-1.3,4.5-2,6.6-1.2c1,0.4,1.8,1.2,2,2.3c0.2,0.8,0.1,1.8-0.6,2.4c-0.6,0.5-1,1.3-0.5,2.1C317,211.2,318,211.6,318.7,211.1
			L318.7,211.1z"/>
	</g>
</g>
<g>
	<path class="st0" d="M287.6,294.2c1.7-7.7-8.5-15-15.4-10.8c-6.8,4.2-5.2,16.5,2.5,18.8c7.6,2.2,15.7-7.2,12.3-14.4"/>
	<g>
		<path class="st0" d="M289.2,294.6c1.1-5.6-2.5-10.8-7.4-13s-10.9-1.1-13.8,3.8c-2.4,4.2-2.1,9.8,0.5,13.8
			c3.1,4.7,8.7,6.1,13.7,3.6c5.7-2.9,9-10,6.4-16c-0.4-0.8-1.6-1-2.3-0.6c-0.9,0.5-1,1.5-0.6,2.3c1.7,3.8-0.6,8.3-3.8,10.6
			c-1.7,1.2-3.7,1.9-5.8,1.6c-1.8-0.3-3.2-1.2-4.3-2.5c-2.2-2.6-2.8-6.7-1.6-9.9c0.6-1.5,1.7-2.9,3.1-3.7c1.7-1,3.7-1,5.6-0.5
			c4.1,1.1,7.9,5.2,7,9.6C285.7,295.9,288.8,296.8,289.2,294.6L289.2,294.6z"/>
	</g>
</g>
<g>
	<path class="st0" d="M267.8,164.7c1.7-7.7-8.5-15-15.4-10.8c-6.7,4.2-5.2,16.5,2.5,18.8c7.6,2.2,15.7-7.2,12.3-14.4"/>
	<g>
		<path class="st0" d="M269.4,165.2c1.1-5.6-2.5-10.8-7.4-13c-5-2.2-10.9-1.1-13.8,3.8c-2.4,4.2-2.1,9.8,0.5,13.8
			c3.1,4.7,8.7,6.1,13.7,3.6c5.7-2.9,9-10,6.4-16c-0.4-0.8-1.6-1-2.3-0.6c-0.9,0.5-1,1.5-0.6,2.3c1.7,3.8-0.6,8.3-3.8,10.6
			c-1.7,1.2-3.7,1.9-5.8,1.6c-1.8-0.3-3.2-1.2-4.3-2.5c-2.2-2.6-2.8-6.7-1.6-9.9c0.6-1.5,1.7-2.9,3.1-3.7c1.7-1,3.7-1,5.6-0.5
			c4.1,1.1,7.9,5.2,7,9.6C265.7,166.3,269,167.2,269.4,165.2L269.4,165.2z"/>
	</g>
</g>
<g>
	<g>
		<path class="st0" d="M235.6,1.9c3.3,11.9,6.6,23.8,9.8,35.7c0.5,1.9,3.4,1.1,2.9-0.8c-3.3-11.9-6.6-23.8-9.8-35.7
			C237.9-0.8,235.1,0,235.6,1.9L235.6,1.9z"/>
	</g>
</g>
<g>
	<g>
		<path class="st0" d="M292.3,13.8c-10.3,11.9-20.5,23.8-30.9,35.8c-1.3,1.5,0.9,3.6,2.1,2.1c10.3-11.9,20.5-23.8,30.9-35.8
			C295.7,14.5,293.6,12.4,292.3,13.8L292.3,13.8z"/>
	</g>
</g>
<g>
	<g>
		<path class="st0" d="M329.5,50.5c-12.9,8.7-25.8,17.6-38.7,26.3c-1.6,1.1-0.1,3.7,1.5,2.6c12.9-8.7,25.8-17.6,38.7-26.3
			C332.6,52,331.1,49.4,329.5,50.5L329.5,50.5z"/>
	</g>
</g>
<g>
	<g>
		<path class="st0" d="M252.3,370.9c-7.2,8.1-13.4,17.1-18.3,26.8c-0.9,1.7,1.7,3.2,2.6,1.5c4.8-9.5,10.7-18.3,17.8-26.2
			C255.7,371.6,253.6,369.5,252.3,370.9L252.3,370.9z"/>
	</g>
</g>
<g>
	<g>
		<path class="st0" d="M286,368.3c3.9,9,8.8,17.5,14.8,25.3c1.1,1.5,3.8,0,2.6-1.5c-6-7.8-10.8-16.3-14.8-25.3
			C287.7,365.1,285.2,366.6,286,368.3L286,368.3z"/>
	</g>
</g>
<g>
	<g>
		<path class="st0" d="M322.7,356.7c18.1,3.9,35.8,9.4,52.9,16.6c0.8,0.3,1.6,0.2,2.1-0.5c0.4-0.6,0.2-1.7-0.5-2.1
			c-17.3-7.3-35.2-13-53.6-17C321.6,353.5,320.8,356.3,322.7,356.7L322.7,356.7z"/>
	</g>
</g>
</svg>
