<svg xmlns="http://www.w3.org/2000/svg" viewBox="0 0 42.5 86.35"><defs><style>.cls-1{fill:#F0CF7C;}</style></defs><title>Recurso 12</title><g id="Capa_2" data-name="Capa 2"><g id="lineas"><path class="cls-1" d="M.28,1.19C14.11,10.82,23.09,25.61,27.52,41.7a116,116,0,0,1,3.85,27.44,45.58,45.58,0,0,1,.05,7.48c-.38,2.74.12,2.38-2,1.75C25,77.05,20.51,71.55,17.87,68l-1,.76A82.69,82.69,0,0,1,33.22,86.06a.64.64,0,0,0,1.15-.15,97.54,97.54,0,0,1,8.05-20.52c.38-.71-.7-1.34-1.08-.63a99.13,99.13,0,0,0-8.18,20.82l1.14-.15A83.58,83.58,0,0,0,17.78,67.84c-.51-.4-1.45.13-1,.75a38.6,38.6,0,0,0,14.84,12.3.63.63,0,0,0,.94-.54C33.5,50.59,26.83,18.16.91.11.25-.35-.38.73.28,1.19Z"/></g></g></svg>