<?xml version="1.0" encoding="utf-8"?>
<!-- Generator: Adobe Illustrator 23.1.1, SVG Export Plug-In . SVG Version: 6.00 Build 0)  -->
<svg version="1.1" id="Capa_1" xmlns="http://www.w3.org/2000/svg" xmlns:xlink="http://www.w3.org/1999/xlink" x="0px" y="0px"
	 viewBox="0 0 400 400" style="enable-background:new 0 0 400 400;" xml:space="preserve">
<style type="text/css">
	.st0{fill:#030303;}
</style>
<g>
	<g>
		<g>
			<path class="st0" d="M214.7,26.8c18.2,0.7,36.2,4.4,53.2,10.9c17,6.4,33,15.6,47.2,26.9c14.2,11.3,26.7,24.9,36.5,40.2
				c5.6,8.8,10.5,18.1,14.2,27.9c4,10.6,6.3,21.7,7.2,33c0.9,11.2,0.8,22.4,0.4,33.6c-0.4,10.7-1.4,21.4-3,31.9
				c-3.2,20.7-9.1,41.2-19.3,59.6c-8.9,16.1-20.8,30.3-34.8,42.1c-14,11.9-30.1,21.3-47.2,28c-19.2,7.5-39.7,11.4-60.3,12.1
				c-21.6,0.7-43.3-2.1-64.1-7.9c-9.5-2.6-19-5.7-27.8-10c-7.6-3.7-14.8-8.2-21.6-13.2C81,331.3,68.8,318,58.7,303.5
				c-10.2-14.8-18.4-31-24-48.2c-5.4-16.6-7.7-33.8-7.8-51.2c-0.1-16.4,1.7-32.9,5.7-48.8c3.6-14.5,9.1-28.5,16.5-41.6
				c7.1-12.5,15.8-24,25.9-34.2c10-10,21.3-18.8,33.4-26c12.5-7.4,25.8-13.3,39.7-17.5c14.3-4.4,29.1-7.2,44-8.4
				C199.6,26.9,207.1,26.7,214.7,26.8c1.5,0,1.5-2.3,0-2.3c-15.6-0.3-31.2,1-46.5,4c-14.7,2.9-29,7.4-42.6,13.5
				c-13.3,6-25.9,13.5-37.4,22.6c-11.3,8.9-21.5,19.3-30.1,30.9c-8.9,11.9-16,25-21.4,38.8c-5.7,14.8-9.3,30.4-11,46.2
				c-1.8,17.2-1.8,35,1,52.1c2.9,17.7,9,34.9,17.2,50.9c8.3,16.2,19,31.2,31.7,44.3c12.1,12.4,26.2,23.2,42,30.4
				c9.2,4.2,18.9,7.3,28.6,9.9c10.6,2.8,21.3,4.9,32.2,6.1c21.7,2.5,43.9,1.6,65.2-3.1c18.7-4.1,36.8-11.3,53.1-21.3
				c15.8-9.7,30.1-21.9,41.8-36.4c12.5-15.5,21.6-33.5,27.4-52.5c6.2-20.5,8.9-42,9.7-63.4c0.8-22.9,0-46-8.5-67.5
				C360,111.7,349,95,335.8,80.7c-12.5-13.5-27.1-25-43.2-34c-16-9-33.4-15.5-51.5-19.1c-8.7-1.7-17.6-2.8-26.5-3.1
				C213.1,24.4,213.2,26.8,214.7,26.8L214.7,26.8z"/>
		</g>
	</g>
	<g>
		<g>
			<path class="st0" d="M212.3,54.1c15.2,0.6,30.3,3.7,44.5,9.1c14.2,5.4,27.6,13,39.5,22.5c11.9,9.5,22.3,20.8,30.6,33.6
				c4.7,7.3,8.8,15.1,11.9,23.3c3.3,8.9,5.3,18.2,6,27.6c0.8,9.4,0.7,18.8,0.3,28.2c-0.4,8.9-1.1,17.9-2.5,26.7
				c-2.7,17.4-7.6,34.5-16.1,49.9c-7.4,13.5-17.4,25.4-29.2,35.3c-11.7,9.9-25.2,17.9-39.5,23.4c-16.1,6.3-33.3,9.6-50.5,10.1
				c-18.1,0.6-36.2-1.8-53.6-6.7c-7.9-2.2-15.9-4.8-23.3-8.4c-6.4-3.1-12.4-6.8-18.1-11.1c-11.8-8.9-22.1-20-30.5-32.2
				c-8.6-12.4-15.4-26-20.1-40.3c-4.5-13.9-6.4-28.3-6.5-42.9c-0.1-13.8,1.4-27.5,4.7-40.9c3-12.1,7.6-23.9,13.8-34.8
				c5.9-10.5,13.2-20.1,21.7-28.6c8.4-8.4,17.8-15.7,28-21.7c10.4-6.2,21.6-11.1,33.2-14.7c12-3.7,24.3-6,36.8-7.1
				C199.7,54.2,206,54,212.3,54.1c1.5,0,1.5-2.3,0-2.3c-13.1-0.2-26.2,0.8-39,3.4c-12.3,2.4-24.3,6.2-35.8,11.3
				c-11.2,5-21.7,11.4-31.3,18.9c-9.5,7.5-18,16.2-25.2,25.9c-7.4,10-13.4,21-17.9,32.6c-4.8,12.4-7.8,25.5-9.2,38.8
				c-1.6,14.4-1.5,29.3,0.9,43.7c2.4,14.9,7.5,29.3,14.4,42.7c7,13.6,15.9,26.2,26.6,37.1c10.1,10.4,22,19.4,35.3,25.5
				c7.7,3.5,15.9,6.1,24,8.3c8.9,2.4,17.9,4.1,27,5.1c18.2,2.1,36.8,1.4,54.7-2.6c15.7-3.5,30.8-9.5,44.6-17.9
				c13.3-8.1,25.3-18.4,35-30.5c10.5-13.1,18.1-28.1,23-44.1c5.2-17.2,7.4-35.3,8.1-53.2c0.7-19.2,0-38.5-7.2-56.6
				c-6-15.3-15.2-29.3-26.4-41.3c-10.5-11.3-22.8-20.9-36.2-28.5c-13.4-7.5-28.1-13-43.2-16c-7.3-1.5-14.8-2.3-22.2-2.6
				C210.8,51.7,210.8,54.1,212.3,54.1L212.3,54.1z"/>
		</g>
	</g>
	<g>
		<g>
			<path class="st0" d="M42.5,130.3c5.8,4,11.9,7.5,18.2,10.7c1.3,0.7,2.5-1.3,1.2-2c-6.3-3.2-12.4-6.8-18.2-10.7
				C42.4,127.4,41.3,129.5,42.5,130.3L42.5,130.3z"/>
		</g>
	</g>
	<g>
		<g>
			<path class="st0" d="M33,161.2c8-0.1,15.6,3.4,20.9,9.4c1,1.1,2.6-0.5,1.7-1.7c-5.6-6.4-14-10.2-22.5-10.1
				C31.5,158.9,31.5,161.2,33,161.2L33,161.2z"/>
		</g>
	</g>
	<g>
		<g>
			<path class="st0" d="M35.1,195.5c5.5-1.2,11.3-0.5,16.3,2c1.3,0.7,2.5-1.3,1.2-2c-5.6-2.8-12-3.6-18.1-2.2
				C33,193.6,33.6,195.8,35.1,195.5L35.1,195.5z"/>
		</g>
	</g>
	<g>
		<g>
			<path class="st0" d="M102,63.8c4.6,3.5,7.6,9,8,14.8c0.1,1.5,2.4,1.5,2.3,0c-0.4-6.7-3.8-12.9-9.2-16.9c-0.5-0.4-1.3-0.1-1.6,0.4
				C101.2,62.7,101.5,63.4,102,63.8L102,63.8z"/>
		</g>
	</g>
	<g>
		<g>
			<path class="st0" d="M65.2,90c7.1,1.7,13.1,6.6,16.4,13.1c0.7,1.3,2.7,0.2,2-1.2c-3.6-7-10.2-12.3-17.8-14.1
				C64.3,87.4,63.7,89.7,65.2,90L65.2,90z"/>
		</g>
	</g>
	<g>
		<g>
			<path class="st0" d="M137.4,37.3c3.2,5.6,10.4,11.5,7.9,18.7c-0.5,1.4,1.8,2,2.3,0.6c2.8-8-4.6-14.2-8.2-20.5
				C138.7,34.8,136.7,36,137.4,37.3L137.4,37.3z"/>
		</g>
	</g>
	<g>
		<g>
			<path class="st0" d="M252.9,61.6c2.4-6.8,6.9-12.9,12.6-17.2c1.2-0.9,0-2.9-1.2-2c-6.3,4.8-11,11.2-13.7,18.6
				C250.1,62.4,252.4,63,252.9,61.6L252.9,61.6z"/>
		</g>
	</g>
	<g>
		<g>
			<path class="st0" d="M288,76.8c6.3-5.2,10.9-12.3,13.3-20.1c0.4-1.4-1.8-2.1-2.3-0.6c-2.3,7.5-6.7,14.1-12.7,19.1
				C285.2,76.1,286.9,77.7,288,76.8L288,76.8z"/>
		</g>
	</g>
	<g>
		<g>
			<path class="st0" d="M313.2,98c5.6-3.7,11.2-7.5,16.8-11.2c1.2-0.8,0.1-2.9-1.2-2c-5.6,3.7-11.2,7.5-16.8,11.2
				C310.8,96.8,312,98.9,313.2,98L313.2,98z"/>
		</g>
	</g>
	<g>
		<g>
			<path class="st0" d="M350.2,173.5c5.9-3.2,13.3-2.8,18.8,0.9c1.2,0.9,2.4-1.2,1.2-2c-6.2-4.2-14.6-4.6-21.1-0.9
				C347.7,172.2,348.8,174.2,350.2,173.5L350.2,173.5z"/>
		</g>
	</g>
	<g>
		<g>
			<path class="st0" d="M353.4,195c5.7-1.4,13.2-2.9,17.9,1.6c1.1,1,2.8-0.6,1.7-1.7c-5.4-5.2-13.6-3.7-20.2-2.2
				C351.3,193.1,352,195.4,353.4,195L353.4,195z"/>
		</g>
	</g>
	<g>
		<g>
			<path class="st0" d="M352.9,226.7c7.3,2.1,13.5,7.7,16.3,14.8c0.6,1.4,2.8,0.8,2.3-0.6c-3.1-7.9-9.8-14-17.9-16.4
				C352.1,224,351.4,226.3,352.9,226.7L352.9,226.7z"/>
		</g>
	</g>
	<g>
		<g>
			<path class="st0" d="M339.6,257.3c6.2,5,12.3,10,18.5,14.9c1.2,0.9,2.8-0.7,1.7-1.7c-6.2-5-12.3-10-18.5-14.9
				C340.1,254.7,338.4,256.3,339.6,257.3L339.6,257.3z"/>
		</g>
	</g>
	<g>
		<g>
			<path class="st0" d="M308.7,302.8c7.2,5.6,12.1,14.1,13.1,23.2c0.2,1.5,2.5,1.5,2.3,0c-1.1-9.7-6-18.8-13.8-24.9
				C309.2,300.2,307.5,301.8,308.7,302.8L308.7,302.8z"/>
		</g>
	</g>
	<g>
		<g>
			<path class="st0" d="M83,328.2c6.9-2.3,12-8.7,12.8-16c0.1-0.6-0.6-1.2-1.2-1.2c-0.7,0-1.1,0.5-1.2,1.2
				c-0.7,6.2-5.2,11.7-11.1,13.7C81,326.4,81.6,328.7,83,328.2L83,328.2z"/>
		</g>
	</g>
	<g>
		<g>
			<path class="st0" d="M60.8,299.7c7.5-0.1,14.8-2.6,20.8-7.2c1.2-0.9,0-2.9-1.2-2c-5.6,4.3-12.5,6.7-19.6,6.9
				C59.3,297.4,59.3,299.7,60.8,299.7L60.8,299.7z"/>
		</g>
	</g>
	<g>
		<path class="st0" d="M358.6,135.7c-1.7-1.1-4-1.4-6-0.8c-2.7,0.9-4.4,3.3-5.2,5.7c-0.7,2.2-0.7,5,1.3,6.4c0.8,0.6,3.2,1.4,4.3,1.4
			c2.7,0.2,4.2,0.2,6.2-1.3c2.2-1.6,2.4-4.4,2.5-6.8C361.8,139,360,136.2,358.6,135.7"/>
	</g>
	<g>
		<g>
			<path class="st0" d="M186.9,253.7c3.3-13.7,10.8-26.1,13.5-40c0.3-1.5-2-2.1-2.3-0.6c-2.7,13.9-10.2,26.3-13.5,40
				C184.3,254.5,186.5,255.2,186.9,253.7L186.9,253.7z"/>
		</g>
	</g>
	<g>
		<g>
			<path class="st0" d="M154.4,189.1c13.9,4.8,27.8,9.7,41.7,14.7c1.4,0.5,2-1.8,0.6-2.3c-13.9-5-27.7-10-41.7-14.7
				C153.6,186.4,153,188.6,154.4,189.1L154.4,189.1z"/>
		</g>
	</g>
	<g>
		<g>
			<path class="st0" d="M209.1,207.7c13.9,4.8,27.8,9.7,41.7,14.7c1.4,0.5,2-1.8,0.6-2.3c-13.9-5-27.7-10-41.7-14.7
				C208.3,205,207.6,207.3,209.1,207.7L209.1,207.7z"/>
		</g>
	</g>
	<g>
		<g>
			<path class="st0" d="M206.5,196.1c3.3-13.7,10.8-26.1,13.5-40c0.3-1.5-2-2.1-2.3-0.6c-2.7,13.9-10.2,26.3-13.5,40
				C203.9,197,206.1,197.6,206.5,196.1L206.5,196.1z"/>
		</g>
	</g>
	<g>
		<g>
			<path class="st0" d="M186.8,255.4c-2.7-2-6.5-1.5-8.7,1c-2,2.2-3.1,5.6-2.8,8.5c0.2,1.5,0.8,2.9,1.9,3.8c1.3,1,3,1.4,4.7,1.6
				c1.5,0.1,3.1-0.1,4.4-0.8c1.4-0.7,2.4-2.1,2.9-3.5c0.6-1.6,0.7-3.3,0.7-5c0-1.7-0.2-3.5-1.8-4.5c-1.3-0.8-2.5,1.3-1.2,2
				c0.8,0.4,0.7,1.7,0.7,2.4c0,1.1-0.1,2.3-0.3,3.4c-0.2,1-0.7,2.1-1.5,2.7c-0.8,0.7-1.9,0.8-3,0.8c-1.1,0-2.3-0.2-3.3-0.7
				c-0.9-0.5-1.5-1.2-1.7-2.3c-0.5-2.1,0.4-4.6,1.5-6.3c0.6-1,1.6-1.8,2.7-2.1c1.3-0.3,2.6,0,3.6,0.8c0.5,0.4,1.3,0.1,1.6-0.4
				C187.5,256.4,187.3,255.8,186.8,255.4L186.8,255.4z"/>
		</g>
	</g>
	<g>
		<g>
			<path class="st0" d="M227.2,137.9c-2.7-2-6.5-1.5-8.7,1c-2,2.2-3.1,5.6-2.8,8.5c0.2,1.5,0.8,2.9,1.9,3.8c1.3,1,3,1.4,4.7,1.6
				c1.5,0.1,3.1-0.1,4.4-0.8c1.4-0.7,2.4-2.1,2.9-3.5c0.6-1.6,0.7-3.3,0.7-5c0-1.7-0.2-3.5-1.8-4.5c-1.3-0.8-2.5,1.3-1.2,2
				c0.8,0.4,0.7,1.7,0.7,2.4c0,1.1-0.1,2.3-0.3,3.4c-0.2,1-0.7,2.1-1.5,2.7c-0.8,0.7-1.9,0.8-3,0.8c-1.1,0-2.3-0.2-3.3-0.7
				c-0.9-0.5-1.5-1.2-1.7-2.3c-0.5-2.1,0.4-4.6,1.5-6.3c0.6-1,1.6-1.8,2.7-2.1c1.3-0.3,2.6,0,3.6,0.8c0.5,0.4,1.3,0.1,1.6-0.4
				C228,138.9,227.7,138.3,227.2,137.9L227.2,137.9z"/>
		</g>
	</g>
	<g>
		<g>
			<path class="st0" d="M262.5,214.1c-2.7-2-6.5-1.5-8.7,1c-2,2.2-3.1,5.6-2.8,8.5c0.2,1.5,0.8,2.9,1.9,3.8c1.3,1,3,1.4,4.7,1.6
				c1.5,0.1,3.1-0.1,4.4-0.8c1.4-0.7,2.4-2.1,2.9-3.5c0.6-1.6,0.7-3.3,0.7-5c0-1.7-0.2-3.5-1.8-4.5c-1.3-0.8-2.5,1.3-1.2,2
				c0.8,0.4,0.7,1.7,0.7,2.4c0,1.1-0.1,2.3-0.3,3.4c-0.2,1-0.7,2.1-1.5,2.7c-0.8,0.7-1.9,0.8-3,0.8c-1.1,0-2.3-0.2-3.3-0.7
				c-0.9-0.5-1.5-1.2-1.7-2.3c-0.5-2.1,0.4-4.6,1.5-6.3c0.6-1,1.6-1.8,2.7-2.1c1.3-0.3,2.6,0,3.6,0.8c0.5,0.4,1.3,0.1,1.6-0.4
				C263.3,215.1,263,214.5,262.5,214.1L262.5,214.1z"/>
		</g>
	</g>
	<g>
		<g>
			<path class="st0" d="M206.4,196.8c-2.7-2-6.5-1.5-8.7,1c-2,2.2-3.1,5.6-2.8,8.5c0.2,1.5,0.8,2.9,1.9,3.8c1.3,1,3,1.4,4.7,1.6
				c1.5,0.1,3.1-0.1,4.4-0.8c1.4-0.7,2.4-2.1,2.9-3.5c0.6-1.6,0.7-3.3,0.7-5c0-1.7-0.2-3.5-1.8-4.5c-1.3-0.8-2.5,1.3-1.2,2
				c0.8,0.4,0.7,1.7,0.7,2.4c0,1.1-0.1,2.3-0.3,3.4c-0.2,1-0.7,2.1-1.5,2.7c-0.8,0.7-1.9,0.8-3,0.8c-1.1,0-2.3-0.2-3.3-0.7
				c-0.9-0.5-1.5-1.2-1.7-2.3c-0.5-2.1,0.4-4.6,1.5-6.3c0.6-1,1.6-1.8,2.7-2.1c1.3-0.3,2.6,0,3.6,0.8c0.5,0.4,1.3,0.1,1.6-0.4
				C207.1,197.8,206.9,197.2,206.4,196.8L206.4,196.8z"/>
		</g>
	</g>
	<g>
		<g>
			<path class="st0" d="M153.3,177.9c-2.7-2-6.5-1.5-8.7,1c-2,2.2-3.1,5.6-2.8,8.5c0.2,1.5,0.8,2.9,1.9,3.8c1.3,1,3,1.4,4.7,1.6
				c1.5,0.1,3.1-0.1,4.4-0.8c1.4-0.7,2.4-2.1,2.9-3.5c0.6-1.6,0.7-3.3,0.7-5c0-1.7-0.2-3.5-1.8-4.5c-1.3-0.8-2.5,1.3-1.2,2
				c0.8,0.4,0.7,1.7,0.7,2.4c0,1.1-0.1,2.3-0.3,3.4c-0.2,1-0.7,2.1-1.5,2.7c-0.8,0.7-1.9,0.8-3,0.8c-1.1,0-2.3-0.2-3.3-0.7
				c-0.9-0.5-1.5-1.2-1.7-2.3c-0.5-2.1,0.4-4.6,1.5-6.3c0.6-1,1.6-1.8,2.7-2.1c1.3-0.3,2.6,0,3.6,0.8c0.5,0.4,1.3,0.1,1.6-0.4
				C154.1,178.9,153.8,178.3,153.3,177.9L153.3,177.9z"/>
		</g>
	</g>
	<g>
		<g>
			<path class="st0" d="M211.1,200c14.7-11.8,29-23.9,43.1-36.3c14-12.4,27.7-25.2,41-38.3c7.5-7.4,15-14.9,22.3-22.5
				c1-1.1-0.6-2.7-1.7-1.7c-13,13.5-26.4,26.8-40.1,39.6c-13.6,12.8-27.6,25.3-41.9,37.4c-8.1,6.8-16.2,13.6-24.5,20.2
				C208.3,199.3,210,200.9,211.1,200L211.1,200z"/>
		</g>
	</g>
	<g>
		<g>
			<path class="st0" d="M213.2,205.5c32.3-4.5,64.9-7.2,97.6-8c9.2-0.2,18.4-0.3,27.7-0.3c1.5,0,1.5-2.3,0-2.3
				c-32.9-0.2-65.9,1.4-98.6,5c-9.1,1-18.2,2.1-27.3,3.4C211.1,203.4,211.7,205.7,213.2,205.5L213.2,205.5z"/>
		</g>
	</g>
	<g>
		<g>
			<path class="st0" d="M199.7,215.5c8.4,31.9,16.6,63.8,25.6,95.5c2.5,8.9,5.1,17.7,7.7,26.5c0.4,1.4,2.7,0.8,2.3-0.6
				c-9.5-31.5-17.8-63.3-26.2-95.1c-2.4-9-4.7-18-7.1-26.9C201.6,213.4,199.3,214,199.7,215.5L199.7,215.5z"/>
		</g>
	</g>
	<g>
		<g>
			<path class="st0" d="M207.3,208.6c7.2,5.9,14.4,11.8,21.6,17.6c7,5.7,13.9,11.5,21.1,17c7.1,5.5,14.7,10.3,21.9,15.6
				c6.9,5.1,13.2,10.9,19.2,16.9c6.7,6.8,13.1,13.9,19.4,21.1c1,1.1,2.7-0.5,1.7-1.7c-11.2-12.7-22.6-25.5-36-36
				c-7-5.5-14.5-10.2-21.6-15.4c-7.3-5.4-14.3-11.3-21.4-17.1c-8.1-6.6-16.2-13.2-24.3-19.8C207.8,206,206.1,207.7,207.3,208.6
				L207.3,208.6z"/>
		</g>
	</g>
	<g>
		<g>
			<path class="st0" d="M61.1,240.7c17.8-3.5,35.3-8.3,52.7-13.5c17.3-5.2,34.6-10.7,51.9-15.8c9.8-2.9,19.7-5.6,29.6-8
				c1.5-0.4,0.8-2.6-0.6-2.3c-17.7,4.3-35.1,9.5-52.4,14.8c-17.3,5.3-34.5,10.7-52,15.4c-9.9,2.6-19.8,5-29.9,7
				C59,238.7,59.6,241,61.1,240.7L61.1,240.7z"/>
		</g>
	</g>
	<g>
		<g>
			<path class="st0" d="M101.4,304.9c13.2-11.5,26.1-23.3,38.8-35.3c12.6-12,25-24.3,37-36.8c6.8-7.1,13.6-14.3,20.2-21.5
				c1-1.1-0.6-2.8-1.7-1.7c-11.8,12.9-23.9,25.5-36.3,37.9c-12.3,12.3-24.9,24.3-37.7,36.1c-7.3,6.6-14.6,13.2-22,19.7
				C98.7,304.2,100.3,305.9,101.4,304.9L101.4,304.9z"/>
		</g>
	</g>
	<g>
		<g>
			<path class="st0" d="M108.8,84.1c10.9,15.5,22,30.9,33.2,46.2c11.2,15.4,22.6,30.6,34.1,45.8c6.5,8.6,13,17.2,19.5,25.8
				c0.9,1.2,2.9,0,2-1.2c-11.6-15.2-23.2-30.5-34.6-45.9c-11.3-15.2-22.5-30.5-33.6-45.9c-6.2-8.7-12.4-17.4-18.6-26.1
				C110,81.7,107.9,82.9,108.8,84.1L108.8,84.1z"/>
		</g>
	</g>
	<g>
		<g>
			<path class="st0" d="M161.1,59.3c4.9,17.7,9.9,35.4,14.8,53.2c4.9,17.5,9.8,35,15.1,52.5c3,9.9,6,19.7,9.2,29.6
				c0.5,1.4,2.7,0.8,2.3-0.6c-5.7-17.4-10.9-35-16-52.6c-5-17.5-9.9-35.1-14.8-52.6c-2.8-10-5.6-20-8.4-30
				C163,57.2,160.7,57.8,161.1,59.3L161.1,59.3z"/>
		</g>
	</g>
	<g>
		<g>
			<path class="st0" d="M-1.1,260.7c4.6,11.2,9.8,22.2,15.7,32.8c0.7,1.3,2.8,0.1,2-1.2c-5.8-10.4-11-21.2-15.5-32.2
				C0.6,258.7-1.7,259.4-1.1,260.7L-1.1,260.7z"/>
		</g>
	</g>
	<g>
		<g>
			<path class="st0" d="M9,228c-0.2,12.4,2.2,24.9,6.9,36.4c2.4,5.9,5.6,11.5,8.8,17c3.2,5.6,6.3,11.3,9.1,17.1
				c3.2,6.6,6.1,13.3,8.7,20.1c0.5,1.4,2.8,0.8,2.3-0.6c-4.6-11.9-9.9-23.4-16.2-34.5c-3.2-5.7-6.6-11.2-9.3-17.1
				c-2.5-5.6-4.5-11.4-5.8-17.4c-1.6-6.9-2.3-13.9-2.2-21C11.4,226.5,9,226.5,9,228L9,228z"/>
		</g>
	</g>
	<g>
		<g>
			<path class="st0" d="M366.9,32.8c4.7,5.5,7.2,12.6,10.1,19.2c3,6.9,5.9,13.9,8.5,20.9c5.2,13.9,9.5,28.3,11,43.2
				c0.8,8.6,0.2,17.4,2.4,25.8c0.4,1.5,2.6,0.8,2.3-0.6c-2-7.7-1.6-15.7-2.2-23.5c-0.6-7.6-2-15-3.8-22.4
				c-3.7-14.7-9.4-28.8-15.4-42.8c-3.1-7.3-5.9-15.2-11.2-21.4C367.6,30,365.9,31.7,366.9,32.8L366.9,32.8z"/>
		</g>
	</g>
	<g>
		<g>
			<path class="st0" d="M357.4,68.5c6.7,4.9,9.7,13.5,13,20.8c3.8,8.6,7.5,17.3,10.3,26.3c1.5,5,2.8,10.1,3.6,15.3
				c0.2,1.5,2.5,0.9,2.3-0.6c-1.5-9.6-4.5-18.9-8-28c-1.7-4.4-3.6-8.8-5.6-13.1c-1.8-4.1-3.6-8.3-5.7-12.2
				c-2.2-4.1-4.9-7.8-8.6-10.5C357.4,65.6,356.2,67.6,357.4,68.5L357.4,68.5z"/>
		</g>
	</g>
</g>
</svg>
