<?xml version="1.0" encoding="utf-8"?>
<!-- Generator: Adobe Illustrator 23.1.1, SVG Export Plug-In . SVG Version: 6.00 Build 0)  -->
<svg version="1.1" id="Capa_1" xmlns="http://www.w3.org/2000/svg" xmlns:xlink="http://www.w3.org/1999/xlink" x="0px" y="0px"
	 viewBox="0 0 400 400" style="enable-background:new 0 0 400 400;" xml:space="preserve">
<style type="text/css">
	.st0{fill:#222221;}
	.st1{fill:#060606;}
</style>
<g>
	<g>
		<g>
			<path class="st0" d="M365.8,124.8c-6.7,1.4-12,7.4-12.3,14.2c-0.3,7.1,4.5,13.5,11.2,15.5c7.2,2.2,15.6,0.9,20.4-5.3
				c4.4-5.6,4.5-13.5,0.4-19.4c-4.7-6.8-13.8-9-21.3-5.7c-1.3,0.5-0.2,2.4,1.1,1.9c5.8-2.5,13-1.2,17.3,3.6
				c4.1,4.5,5.1,11.3,2.1,16.6c-1.4,2.5-3.7,4.6-6.3,5.9c-3.1,1.5-6.9,1.5-10.3,1c-3.3-0.5-6.4-1.8-8.7-4.2c-1.9-2-3.2-4.7-3.6-7.5
				c-1-6.8,4-13.2,10.6-14.5C367.8,126.6,367.2,124.5,365.8,124.8L365.8,124.8z"/>
		</g>
	</g>
	<g>
		<g>
			<path class="st0" d="M193.3,238c-3.6-0.2-6.2,3-6.4,6.4c-0.2,3.3,1.8,7.1,5.1,8.1c2.9,0.9,6.2-0.3,7.9-2.8
				c1.8-2.7,1.4-6.4-0.5-8.9c-2.2-2.8-6.3-3.8-9.6-2.7c-1.3,0.4-0.7,2.5,0.6,2.1c2.2-0.7,4.7-0.4,6.5,1.1s2.5,4.1,1.7,6.3
				c-0.7,2.1-2.8,3.2-5,3c-2.5-0.2-4-2.5-4.4-4.7c-0.3-1.4-0.1-3,0.8-4.1c0.8-1,2-1.7,3.3-1.6C194.7,240.2,194.6,238,193.3,238
				L193.3,238z"/>
		</g>
	</g>
	<g>
		<g>
			<path class="st0" d="M188.9,240.5c-3.7-3.7-10.5-3.2-13.3,1.3c-1.6,2.6-1.1,5.6,0.9,7.9c1.6,1.7,3.9,2.6,6.2,2.7
				c2.6,0.1,5.2-0.9,7-2.9c0.9-1-0.6-2.6-1.5-1.5c-2.3,2.6-6.6,3.1-9.4,0.9c-1.6-1.3-2.5-3.4-1.6-5.4c0.8-1.8,2.6-3,4.5-3.3
				c2.1-0.3,4.2,0.3,5.7,1.8C188.4,243,189.9,241.5,188.9,240.5L188.9,240.5z"/>
		</g>
	</g>
	<g>
		<g>
			<path class="st0" d="M183.5,236.9c0.2-3.1,1-6.1,2.4-8.9c0.7-1.4,1.5-2.7,2.4-3.9c0.4-0.6,0.9-1.1,1.4-1.7
				c0.2-0.3,1.2-1.6,1.5-1.6c0.4,0,1.1,1.1,1.3,1.4c0.3,0.6,0.6,1.1,0.8,1.8c0.5,1.4,0.6,2.8,0.7,4.3c0.2,3.5,0.2,7.1,0.3,10.6
				c0,1.4,2.2,1.4,2.1,0c-0.1-3.3-0.1-6.6-0.3-9.9c-0.1-2.6-0.4-5.4-1.8-7.7c-0.6-1-1.5-2.2-2.6-2.5c-1.4-0.4-2.6,1-3.4,1.9
				c-1.9,2.1-3.5,4.4-4.6,7c-1.3,2.9-2.1,6-2.4,9.3C181.2,238.3,183.4,238.3,183.5,236.9L183.5,236.9z"/>
		</g>
	</g>
	<g>
		<g>
			<path class="st0" d="M191.2,219.8c0.1-2.1,0.6-6.1,3.6-5.2c1.4,0.4,2.6,0.8,4.1,0.7s2.9-0.5,4.2-1.2c-0.5-0.5-1-1-1.5-1.5
				c-2.1,4.3-8,6.2-12.2,3.8c-1.2-0.7-2.3,1.2-1.1,1.9c5.2,2.9,12.5,0.8,15.2-4.6c0.5-1-0.5-2-1.5-1.5c-1.3,0.7-2.9,1-4.4,0.8
				c-1.6-0.2-2.9-1.1-4.5-0.7c-3.3,0.8-3.9,4.5-4,7.4C189,221.2,191.1,221.2,191.2,219.8L191.2,219.8z"/>
		</g>
	</g>
	<g>
		<g>
			<g>
				<path class="st0" d="M85.5,219.5c0.2,3,0.5,6,0.7,9c0.1,1.4,2,1.4,2.1,0c0.3-3.7,5.2-3.6,7.8-3.6c3.7,0,7.5,0.1,11.2,0.1
					c-0.3-0.5-0.6-1.1-0.9-1.6c-4.8,8.9-9.5,17.9-14.3,26.8c-0.4,0.7,0.1,1.6,0.9,1.6c1.9,0.1,3.8,0.2,5.6,0.3
					c1.4,0.1,2.6,0.3,3.3-1.1c0.9-1.7,1.5-3.5,2.2-5.3s1.4-3.5,2.2-5.3c2.9-7.1,5.8-14.2,8.8-21.2c0.5-1.3-1.6-1.8-2.1-0.6
					c-2.6,6.4-5.3,12.8-7.9,19.2c-1.3,3.1-2.6,6.2-3.9,9.4c-0.3,0.7-0.5,1.9-1,2.5c-0.3,0.3-0.3,0.3-0.8,0.3c-0.4,0-0.8,0-1.2-0.1
					c-1.7-0.1-3.4-0.2-5.2-0.3c0.3,0.5,0.6,1.1,0.9,1.6c4.8-8.9,9.5-17.9,14.3-26.8c0.4-0.7-0.1-1.6-0.9-1.6
					c-4.6-0.1-9.2-0.4-13.8-0.1c-3.4,0.2-7.1,1.9-7.4,5.7c0.7,0,1.4,0,2.1,0c-0.2-3-0.5-6-0.7-9C87.5,218.1,85.4,218.1,85.5,219.5
					L85.5,219.5z"/>
			</g>
		</g>
		<g>
			<g>
				<path class="st0" d="M86.6,219.9c2.1-0.6,4.2-0.5,6.4-0.6c2.3,0,4.6-0.1,6.9-0.1c4.6-0.1,9.2-0.2,13.8-0.3c1.4,0,1.4-2.2,0-2.1
					c-4.8,0.1-9.5,0.2-14.3,0.3c-2.3,0-4.6,0.1-6.9,0.1c-2.2,0-4.4,0-6.4,0.6C84.7,218.3,85.2,220.3,86.6,219.9L86.6,219.9z"/>
			</g>
		</g>
	</g>
	<g>
		<g>
			<g>
				<path class="st0" d="M262.1,219.5c0.2,3,0.5,6,0.7,9c0.1,1.4,2,1.4,2.1,0c0.3-3.7,5.2-3.6,7.8-3.6c3.7,0,7.5,0.1,11.2,0.1
					c-0.3-0.5-0.6-1.1-0.9-1.6c-4.8,8.9-9.5,17.9-14.3,26.8c-0.4,0.7,0.1,1.6,0.9,1.6c1.9,0.1,3.8,0.2,5.6,0.3
					c1.4,0.1,2.6,0.3,3.3-1.1c0.9-1.7,1.5-3.5,2.2-5.3s1.4-3.5,2.2-5.3c2.9-7.1,5.8-14.2,8.8-21.2c0.5-1.3-1.6-1.8-2.1-0.6
					c-2.6,6.4-5.3,12.8-7.9,19.2c-1.3,3.1-2.6,6.2-3.9,9.4c-0.3,0.7-0.5,1.9-1,2.5c-0.3,0.3-0.3,0.3-0.8,0.3c-0.4,0-0.8,0-1.2-0.1
					c-1.7-0.1-3.4-0.2-5.2-0.3c0.3,0.5,0.6,1.1,0.9,1.6c4.8-8.9,9.5-17.9,14.3-26.8c0.4-0.7-0.1-1.6-0.9-1.6
					c-4.6-0.1-9.2-0.4-13.8-0.1c-3.4,0.2-7.1,1.9-7.4,5.7c0.7,0,1.4,0,2.1,0c-0.2-3-0.5-6-0.7-9C264.1,218.1,262,218.1,262.1,219.5
					L262.1,219.5z"/>
			</g>
		</g>
		<g>
			<g>
				<path class="st0" d="M263.2,219.9c2.1-0.6,4.2-0.5,6.4-0.6c2.3,0,4.6-0.1,6.9-0.1c4.6-0.1,9.2-0.2,13.8-0.3c1.4,0,1.4-2.2,0-2.1
					c-4.8,0.1-9.5,0.2-14.3,0.3c-2.3,0-4.6,0.1-6.9,0.1c-2.2,0-4.4,0-6.4,0.6C261.3,218.3,261.8,220.3,263.2,219.9L263.2,219.9z"/>
			</g>
		</g>
	</g>
	<g>
		<g>
			<g>
				<path class="st0" d="M83.9,188.2c15,1,30.1,1.3,45.1,0.8c1.4,0,1.4-2.2,0-2.1c-15,0.4-30.1,0.1-45.1-0.8
					C82.5,186,82.5,188.1,83.9,188.2L83.9,188.2z"/>
			</g>
		</g>
		<g>
			<g>
				<path class="st0" d="M83.9,276.3c15,1,30.1,1.3,45.1,0.8c1.4,0,1.4-2.2,0-2.1c-15,0.4-30.1,0.1-45.1-0.8
					C82.5,274.1,82.5,276.2,83.9,276.3L83.9,276.3z"/>
			</g>
		</g>
		<g>
			<g>
				<path class="st0" d="M82.2,187.1c-3.2,4.9-4.1,10.7-4.8,16.3c-0.8,5.9-1.5,11.9-2,17.9c-1.1,11.9-1.3,24,0.8,35.9
					c1.2,6.6,3.2,12.9,6.2,18.9c0.6,1.2,2.5,0.2,1.9-1.1c-10.4-21.2-7.9-45.9-5.1-68.6c0.8-6.2,1.3-12.9,4.9-18.3
					C84.9,187,83,185.9,82.2,187.1L82.2,187.1z"/>
			</g>
		</g>
		<g>
			<g>
				<path class="st0" d="M130.8,275.6c-5.3-22.1-6.7-45.1-4.3-67.7c0.7-6.4,1.7-12.8,3-19.1c0.3-1.3-1.8-1.9-2.1-0.6
					c-4.7,22.6-5.4,45.9-2.3,68.7c0.9,6.5,2.1,12.9,3.6,19.3C129,277.5,131.1,276.9,130.8,275.6L130.8,275.6z"/>
			</g>
		</g>
	</g>
	<g>
		<g>
			<g>
				<path class="st0" d="M250.3,188.2c15,1,30.1,1.3,45.1,0.8c1.4,0,1.4-2.2,0-2.1c-15,0.4-30.1,0.1-45.1-0.8
					C248.9,186,248.9,188.1,250.3,188.2L250.3,188.2z"/>
			</g>
		</g>
		<g>
			<g>
				<path class="st0" d="M250.3,276.3c15,1,30.1,1.3,45.1,0.8c1.4,0,1.4-2.2,0-2.1c-15,0.4-30.1,0.1-45.1-0.8
					C248.9,274.1,248.9,276.2,250.3,276.3L250.3,276.3z"/>
			</g>
		</g>
		<g>
			<g>
				<path class="st0" d="M294.6,189.1c3.1,11,4.9,22.3,5.2,33.6c0.4,11.4-0.7,22.9-1.9,34.2c-0.7,6.3-1.7,12.6-3.4,18.8
					c-0.4,1.3,1.7,1.9,2.1,0.6c3.1-11,3.9-22.5,4.7-33.9c0.9-11.6,0.9-23.1-0.6-34.7c-0.9-6.5-2.2-12.9-4-19.2
					C296.3,187.3,294.2,187.8,294.6,189.1L294.6,189.1z"/>
			</g>
		</g>
		<g>
			<g>
				<path class="st0" d="M247.6,187.9c3.2,11.1,3.9,22.6,4.8,34.1c0.8,11.2,1.4,22.6,0.7,33.8c-0.4,6.4-1.2,12.8-2.6,19.1
					c-0.3,1.3,1.8,1.9,2.1,0.6c2.5-11.2,3.2-22.6,3-34c-0.2-11.6-1-23.2-2.2-34.8c-0.7-6.6-1.8-13-3.6-19.3
					C249.3,186,247.2,186.5,247.6,187.9L247.6,187.9z"/>
			</g>
		</g>
	</g>
	<g>
		<g>
			<g>
				<path class="st0" d="M166.6,188.2c15,1,30.1,1.3,45.1,0.8c1.4,0,1.4-2.2,0-2.1c-15,0.4-30.1,0.1-45.1-0.8
					C165.2,186,165.2,188.1,166.6,188.2L166.6,188.2z"/>
			</g>
		</g>
		<g>
			<g>
				<path class="st0" d="M166.6,276.3c15,1,30.1,1.3,45.1,0.8c1.4,0,1.4-2.2,0-2.1c-15,0.4-30.1,0.1-45.1-0.8
					C165.2,274.1,165.2,276.2,166.6,276.3L166.6,276.3z"/>
			</g>
		</g>
		<g>
			<g>
				<path class="st0" d="M164.9,187c-3.9,10.6-4.4,22.3-4.5,33.5c-0.1,11.7,0.6,23.5,2.2,35.1c0.9,6.6,2.1,13.1,3.5,19.6
					c0.3,1.3,2.4,0.8,2.1-0.6c-5-22.4-6.9-45.7-5-68.6c0.5-6.3,1.6-12.5,3.8-18.4C167.4,186.2,165.3,185.7,164.9,187L164.9,187z"/>
			</g>
		</g>
		<g>
			<g>
				<path class="st0" d="M210.2,188.6c4.2,22.3,5.4,45.1,3.5,67.7c-0.6,6.5-1.4,13-2.4,19.4c-0.2,1.4,1.8,1.9,2.1,0.6
					c3.8-22.8,4.4-46.1,1.9-69c-0.7-6.4-1.7-12.8-2.9-19.2C212,186.7,210,187.3,210.2,188.6L210.2,188.6z"/>
			</g>
		</g>
	</g>
	<g>
		<g>
			<path class="st0" d="M188.4,239.9c-0.1,0.4-0.2,0.6-0.4,0.9c-0.2,0.4-0.4,0.7-0.5,1.1c-0.3,0.8-0.4,1.6-0.5,2.4
				c-0.1,1.6,0.2,3.2,0.9,4.7c0.2,0.5,1,0.7,1.5,0.4s0.6-0.9,0.4-1.5c-0.6-1.2-0.7-2.5-0.6-3.8c0.1-0.6,0.2-1.3,0.5-1.8
				c0.3-0.6,0.7-1.2,0.8-1.9c0.1-0.6-0.1-1.2-0.8-1.3C189.2,239,188.4,239.3,188.4,239.9L188.4,239.9z"/>
		</g>
	</g>
	<g>
		<g>
			<path class="st0" d="M56.9,168.5c-8.1,21.8-11.9,45.2-11.4,68.4c0.5,23.1,5.1,46.3,14.1,67.6c1.8,4.2,4.2,8.8,8.6,10.9
				c5.3,2.5,11.7,0.5,17.1-0.5c12.5-2.2,25.2-3.9,37.8-5.2c25.4-2.6,50.9-3.4,76.4-2.4c25.6,1,51.2,3.8,76.4,8.4
				c3.1,0.6,6.1,1.2,9.2,1.8c1.3,0.3,1.9-1.8,0.6-2.1c-24.6-4.9-49.6-8.2-74.7-9.7s-50.4-1.3-75.5,0.7c-12.4,1-24.8,2.4-37.1,4.2
				c-6.2,0.9-12.4,2-18.5,3.1c-3,0.5-6.1,1.2-9.1,0.4c-2.3-0.6-4.3-2.1-5.7-3.9c-3.2-4.1-4.9-9.5-6.7-14.4c-2-5.4-3.7-11-5.1-16.6
				c-2.9-11.1-4.7-22.5-5.4-34c-1.5-23,1.3-46.3,8.3-68.3c0.8-2.7,1.8-5.3,2.7-7.9C59.5,167.8,57.4,167.2,56.9,168.5L56.9,168.5z"/>
		</g>
	</g>
	<g>
		<g>
			<path class="st0" d="M108.6,163.1c23.6-1.1,47.2-1.6,70.9-1.4c23.5,0.1,46.9,0.8,70.4,2.2c11.7,0.7,23.4,1.5,35.1,2.4
				c3,0.2,5.9,0.5,8.9,0.8c2.7,0.2,5.5,0.4,8.2,1c2.6,0.6,4.8,1.8,6.6,3.7c1.7,1.8,2.9,3.9,4,6c9.2,16.7,13.8,35.7,13.8,54.7
				c0.1,19-4.4,38.1-13.3,54.9c-1.1,2.1-2.3,4.1-3.5,6.1c-0.7,1.2,1.1,2.3,1.9,1.1c10.1-16.5,15.8-35.5,16.9-54.8
				c1.1-19.2-2.4-38.6-10.4-56c-2-4.4-4.2-9.1-7.3-12.8c-3.4-4-8-5.1-13.1-5.6c-12-1.2-24-2-35.9-2.8c-24-1.6-48-2.5-72.1-2.8
				s-48.1,0-72.1,1c-3,0.1-5.9,0.2-8.9,0.4C107.2,161,107.2,163.2,108.6,163.1L108.6,163.1z"/>
		</g>
	</g>
	<g>
		<g>
			<path class="st0" d="M323.9,196.3c10.4-0.9,20.9-1.8,31.3-2.7c-0.3-0.3-0.7-0.5-1-0.8c2.9,8.4,5.6,16.8,7.9,25.3
				c2,7.3,3.7,14.7,4.5,22.3c0.8,7.3,0.8,14.7-0.9,21.8c-0.8,3.6-2.1,7.1-3.8,10.3c-0.4,0.8-0.8,1.5-1.3,2.3
				c-0.4,0.7-0.9,1.7-1.7,2.1c-1,0.5-2.2-0.1-3.1-0.3c-1.1-0.3-2.2-0.7-3.3-1c-9.8-3-19.5-6.1-29.3-9.1c-1.3-0.4-1.9,1.7-0.6,2.1
				c9.1,2.8,18.2,5.7,27.4,8.5c2.2,0.7,4.5,1.6,6.8,2.1c1.8,0.4,3.4-0.1,4.5-1.6c2.3-2.8,3.8-6.5,5-9.8c5.2-14.8,2.7-31.2-1.1-46
				c-2.5-10-5.6-19.8-9-29.5c-0.1-0.4-0.6-0.8-1-0.8c-10.4,0.9-20.9,1.8-31.3,2.7C322.6,194.3,322.6,196.4,323.9,196.3L323.9,196.3z
				"/>
		</g>
	</g>
	<g>
		<g>
			<path class="st0" d="M46.9,202.2c-6.1,0.2-12.3,0.3-18.4,0.5c-3.1,0.1-6.1,0.2-9.2,0.3c-2.9,0.1-5.9,0-8.8,0.3
				c-2.2,0.2-4.3,1.1-5.4,3.1c-1.2,2.2-1.5,4.9-1.9,7.3c-0.9,5-1.4,10-1.5,15C1.6,238.9,3,249.1,6,258.9c1.5,4.9,3.4,9.7,5.6,14.2
				c2.2,4.4,4.6,9,7.7,12.8c1.6,1.9,3.5,3.6,5.9,4.5c2.8,1,5.8,0.6,8.7-0.1c6.7-1.5,13.4-3.2,20.1-4.7c1.3-0.3,0.8-2.4-0.6-2.1
				c-5.5,1.3-11.1,2.6-16.6,3.9c-2.6,0.6-5.2,1.4-7.9,1.4c-2.5,0-4.7-1-6.5-2.8c-3.3-3.1-5.5-7.5-7.6-11.5
				c-2.3-4.3-4.2-8.8-5.7-13.4C6,252,4.3,242.5,4,232.9c-0.1-4.7,0.1-9.5,0.7-14.2c0.3-2.5,0.7-4.9,1.2-7.3c0.5-2.2,0.8-5.1,3.2-5.9
				c1.3-0.4,2.7-0.4,4-0.4c1.7,0,3.3-0.1,5-0.1c3.1-0.1,6.3-0.2,9.4-0.3c6.5-0.2,12.9-0.4,19.4-0.5
				C48.3,204.3,48.3,202.2,46.9,202.2L46.9,202.2z"/>
		</g>
	</g>
	<g>
		<g>
			<path class="st0" d="M362.3,152.3c-5,9.5-10.1,18.9-15.1,28.4c-2.5,4.7-5,9.3-7.5,14c-1.1,2-2.1,4.1-3.3,6.1
				c-0.9,1.6-1.9,3.1-2.4,4.9c-1.2,3.6,0.2,7,3.9,8.3c3.3,1.2,7.9,0.8,10.1-2.2c1.9-2.7,2.6-6.1,3.6-9.2c1.7-4.8,3.5-9.6,5.3-14.4
				c2.1-5.6,4.1-11.1,6.2-16.7c2.1-5.6,4.1-11.3,6.3-16.9c0.4-1.1-1.5-1.9-2-0.8c-0.3,0.7-1.1,0.9-1.8,0.8c-0.5-0.1-1.2-0.3-1.4-0.8
				c-0.1-0.1,0.2-0.6,0-0.3C364.8,152.1,362.9,151.1,362.3,152.3c-2,3.9,5.4,6.1,7,2.4c-0.7-0.3-1.3-0.6-2-0.8
				c-3.6,9.1-6.9,18.4-10.3,27.5c-3,8.1-6.1,16.1-8.8,24.3c-0.5,1.5-1,3.1-1.9,4.4c-1,1.6-2.5,1.9-4.3,2c-2,0.1-4.2-0.2-5.5-1.8
				c-1.1-1.3-0.8-3.1-0.3-4.6c0.6-1.6,1.5-3,2.4-4.5c1.1-1.8,2.1-3.7,3.1-5.6c2.3-4.3,4.6-8.6,6.9-12.9c5.2-9.8,10.5-19.6,15.7-29.4
				C364.8,152.2,362.9,151.1,362.3,152.3z"/>
		</g>
	</g>
</g>
<g>
	<g>
		<g>
			<path class="st1" d="M80.4,85.6c-0.7,3.9-1.1,8-1.4,11.9c-0.6,8.5-0.7,17,0.5,25.5c0.2,1.3,2.3,1.4,2.1,0
				c-1.1-8.3-1.1-16.7-0.5-25.1c0.3-3.9,0.7-7.9,1.3-11.7C82.7,84.8,80.6,84.2,80.4,85.6L80.4,85.6z"/>
		</g>
	</g>
	<g>
		<g>
			<path class="st1" d="M22.8,83.9c3,8.8,7.9,17.2,13.4,24.6c2.8,3.7,5.8,7.3,9.2,10.6c1,1,2.5-0.5,1.5-1.5
				c-9.1-8.9-16.3-19.9-21.1-31.7c-0.3-0.8-0.7-1.7-1-2.5C24.5,82.1,22.4,82.6,22.8,83.9L22.8,83.9z"/>
		</g>
	</g>
	<g>
		<g>
			<path class="st1" d="M-0.5,124.4c2.6,1.7,5.6,2.9,8.4,4c7.1,2.6,14.6,3.7,22.2,3.5c1.4,0,1.4-2.2,0-2.1
				c-7.3,0.2-14.7-0.9-21.6-3.5c-2.7-1-5.5-2.2-7.9-3.8C-0.6,121.8-1.7,123.7-0.5,124.4L-0.5,124.4z"/>
		</g>
	</g>
	<g>
		<g>
			<path class="st1" d="M369,102.7c0,1.4,0.2,2.9,0.5,4.4c0.6,2.6,1.8,5.3,3.9,7.1c0.4,0.4,1.1,0.4,1.5,0s0.4-1.1,0-1.5
				c-1.9-1.6-2.9-3.9-3.4-6.2c-0.1-0.3-0.1-0.5-0.2-0.8c0-0.1,0-0.2-0.1-0.3c0,0-0.1-0.5,0-0.2c-0.1-0.4-0.1-0.8-0.1-1.2
				c0-0.4,0-0.8,0-1.1C371.2,101.3,369.1,101.3,369,102.7L369,102.7z"/>
		</g>
	</g>
	<g>
		<g>
			<path class="st1" d="M399,101.2c-0.1,0.3-0.1,0.5-0.2,0.8c0,0.1-0.1,0.3-0.1,0.4s-0.1,0.1-0.1,0.2c-0.1,0.3,0,0,0,0.1
				c-0.2,0.4-0.3,0.8-0.5,1.1c-1.2,2.3-2.8,4.1-4.9,5.7c-1.6,1.3-3.5,2.3-5.4,3.1c-0.5,0.2-0.9,0.7-0.8,1.3c0.1,0.5,0.8,1,1.3,0.8
				c5.4-2.2,10.3-6.2,12.4-11.9c0.1-0.4,0.3-0.7,0.3-1.1C401.3,100.5,399.3,99.9,399,101.2L399,101.2z"/>
		</g>
	</g>
</g>
</svg>
