<?xml version="1.0" encoding="utf-8"?>
<!-- Generator: Adobe Illustrator 23.1.1, SVG Export Plug-In . SVG Version: 6.00 Build 0)  -->
<svg version="1.1" id="Capa_1" xmlns="http://www.w3.org/2000/svg" xmlns:xlink="http://www.w3.org/1999/xlink" x="0px" y="0px"
	 viewBox="0 0 400 400" style="enable-background:new 0 0 400 400;" xml:space="preserve">
<style type="text/css">
	.st0{fill:#222221;}
</style>
<g>
	<g>
		<path class="st0" d="M176,5.6c-19.3,6.2-37.9,14.3-55.5,24.4c-17.5,10.1-33.9,22-48.7,35.8c-14.9,13.8-28.1,29.5-39,46.6
			c-11.4,17.8-20,37.3-25.8,57.6c-5.8,20.6-8.6,42.2-8,63.6c0.6,21.3,4.5,42.5,12.1,62.4c7.1,18.5,17.3,35.7,31,50.1
			c12.9,13.5,28.5,24.4,45.6,32.1c17.5,7.9,36.1,12.5,55.1,14.5c20.9,2.2,42,2.2,62.9,0.2c21.2-2,42.4-6.1,62.5-13.4
			c18.4-6.7,35.5-16.3,51.1-28.2c15.7-12,29.7-26,41.7-41.7c12-15.8,21.7-33.2,28.6-51.7c6.8-18.2,10.8-37.6,11.3-57
			c0.5-16.9-1.9-34-7.6-49.9c-5.3-14.7-13.2-28.2-23.2-40.1C360,98.9,348,88.5,335,79.7c-13.5-9.2-28-16.8-43-23.1
			c-15.3-6.5-31-11.7-47.1-16c-7.7-2-15.5-3.9-23.3-5.5c-1.8-0.4-3.3,1.1-2.9,2.9c2.4,12.2,4.8,24.5,7.2,36.7
			c1.4-0.6,2.9-1.2,4.3-1.8c-6.6-9-12.1-19.5-15.5-30.1c-0.6-1.9-1.1-3.9-1.6-5.8c-0.1-0.5-0.3-1-0.3-1.5c0.1,0.8,0.1,0.3,0,0.2
			c0-0.1,0-0.3,0-0.4c-0.1,0.3-0.1,0.3,0,0c0.2-0.8,1-1.9,2-2.9c3.5-3.6,8.3-6,12.8-8.1c8.5-3.8,17.6-6.2,26.7-7.8
			c3-0.5,1.7-5.1-1.3-4.6c-8.7,1.5-17.3,3.8-25.5,7.2c-5.5,2.3-11,5.1-15.4,9.1c-1.4,1.3-2.7,2.7-3.5,4.4c-1,2.1-0.7,3.8-0.2,6
			c1.9,8.4,5.5,16.5,9.6,24.1c2.4,4.4,4.9,8.7,7.9,12.7c1.6,2.1,4.9,0.9,4.3-1.8c-2.4-12.2-4.8-24.5-7.2-36.7c-1,1-1.9,1.9-2.9,2.9
			c15.8,3.3,31.4,7.4,46.7,12.5c15.3,5.2,30.3,11.4,44.6,19c13.7,7.3,26.8,15.9,38.5,26.2c11.3,9.9,21.2,21.4,28.9,34.4
			c7.9,13.5,13.2,28.3,15.6,43.7c2.8,17.6,1.8,35.9-1.7,53.3c-3.8,18.9-10.6,37.1-20,54c-9.4,16.9-21.2,32.5-34.9,46.2
			c-13.5,13.5-28.8,25.1-45.5,34.4c-17.5,9.7-36.3,16.1-55.9,20.2c-20.8,4.4-42.1,6.2-63.3,6.1c-19.4-0.1-39-1.6-57.8-6.5
			c-17.7-4.6-34.6-12.1-49.6-22.6c-15.1-10.6-28-24.2-37.7-39.9c-10.8-17.5-17.7-37.2-21.5-57.4c-3.8-20.5-4.1-41.6-1.4-62.3
			c2.7-20.7,8.5-41.2,17.2-60.2c8.4-18.4,19.5-35.6,32.6-50.9c12.8-15.1,27.5-28.5,43.5-40.1c16-11.6,33.3-21.4,51.5-29.4
			c8.8-3.8,17.8-7.2,27-10.1C180.2,9.3,178.9,4.7,176,5.6L176,5.6z"/>
	</g>
</g>
</svg>
