<?xml version="1.0" encoding="utf-8"?>
<!-- Generator: Adobe Illustrator 23.1.1, SVG Export Plug-In . SVG Version: 6.00 Build 0)  -->
<svg version="1.1" id="Capa_1" xmlns="http://www.w3.org/2000/svg" xmlns:xlink="http://www.w3.org/1999/xlink" x="0px" y="0px"
	 viewBox="0 0 331.7 102.5" style="enable-background:new 0 0 331.7 102.5;" xml:space="preserve">
<title>tuCancion</title>
<g>
	<g>
		<path d="M0.5,30.4c15.7-4.6,31.7-7.9,48-9.6c4.6-0.5,9.2-0.9,13.8-1.1c1.4-0.1,1.4-2.3,0-2.2c-16.4,0.9-32.8,3.3-48.8,7.2
			C9,25.7,4.5,26.9,0,28.3C-1.4,28.7-0.8,30.8,0.5,30.4L0.5,30.4z"/>
	</g>
</g>
<g>
	<g>
		<path d="M24.8,30c1.9,17.4,3.8,34.8,5.6,52.3c0.2,1.4,2.3,1.4,2.2,0C30.7,64.9,28.9,47.4,27,30C26.8,28.6,24.6,28.6,24.8,30
			L24.8,30z"/>
	</g>
</g>
<g>
	<g>
		<path d="M48.3,45.1c-0.8,6.6-0.8,13.3,0,19.9c0.6,5.3,1.5,11.6,6,15.1c1.9,1.4,4.3,2.3,6.6,2c2.5-0.3,4.4-1.9,5.8-4
			c1.5-2.3,2.5-5,3.4-7.6c1-3,1.9-6,2.4-9.1c1.2-6.7,1.3-13.5,0.3-20.2c-0.2-1.4-2.3-0.8-2.1,0.6C72.3,52.7,70.9,64,66.4,74
			c-0.9,2.1-2,4.6-4.2,5.6c-2,1-4.3,0.4-6.1-0.8c-4.4-2.9-5.1-9.3-5.6-14c-0.8-6.5-0.8-13.2,0.1-19.7C50.7,43.7,48.5,43.7,48.3,45.1
			L48.3,45.1z"/>
	</g>
</g>
<g>
	<g>
		<path d="M125.3,41.6c0-2.8-2-4.8-4.5-5.7c-3-1-6.1,0.2-8.4,2.2c-2.7,2.2-4.7,5.4-6.4,8.4c-1.8,3.2-3.3,6.6-4.3,10.2
			c-1.1,3.5-1.8,7.3-1.9,11c-0.1,3.3,0.6,6.7,2.8,9.2c3.6,4.1,9.9,5.1,15,3.6c7.3-2.1,12.1-8.9,15.7-15.1c0.7-1.2-1.2-2.3-1.9-1.1
			c-2.9,4.9-6.3,10-11.4,12.8c-4.1,2.3-9.5,2.6-13.6,0.1c-5.4-3.3-4.7-10.1-3.6-15.5c1.2-6.3,3.8-12.3,7.4-17.5
			c1.8-2.6,4-5.5,7.2-6.2c2.4-0.6,5.9,0.9,5.8,3.7C123.1,43,125.3,43,125.3,41.6L125.3,41.6z"/>
	</g>
</g>
<g>
	<g>
		<path d="M137.5,82.1c4.9-15.9,11-31.5,18.1-46.6c-0.7-0.2-1.4-0.4-2-0.6c0.2,15,3.2,29.9,8.8,43.8c0.5,1.3,2.6,0.7,2.1-0.6
			c-5.5-13.7-8.5-28.4-8.7-43.2c0-1-1.6-1.6-2-0.6c-7.2,15.3-13.3,31-18.3,47.1C135,82.9,137.1,83.5,137.5,82.1L137.5,82.1z"/>
	</g>
</g>
<g>
	<g>
		<path d="M136.5,61.7c13.7-1.1,27.4-2.1,41-3.2c1.4-0.1,1.4-2.3,0-2.2c-13.7,1.1-27.4,2.1-41,3.2C135.1,59.6,135.1,61.8,136.5,61.7
			L136.5,61.7z"/>
	</g>
</g>
<g>
	<g>
		<path d="M173.5,78.5c0.3-12,1.6-24,4-35.8c-0.7,0-1.4,0-2.1,0c3.4,13.1,9.2,25.6,17.2,36.6c0.6,0.8,1.7,0.7,2-0.3
			c4.9-13.7,7.9-28.1,8.7-42.6c0.1-1.4-2.1-1.4-2.2,0c-0.8,14.4-3.8,28.5-8.6,42.1c0.7-0.1,1.3-0.2,2-0.3
			c-7.8-10.9-13.6-23.1-16.9-36.1c-0.3-1-1.9-1.1-2.1,0c-2.4,12-3.8,24.2-4.1,36.4C171.3,79.9,173.5,79.9,173.5,78.5L173.5,78.5z"/>
	</g>
</g>
<g>
	<g>
		<path d="M234,56c1.4-3.5-0.8-6.8-3.7-8.7c-3-1.9-6.6-2.3-10-1.5c-6.2,1.5-11,6.6-13.3,12.4c-2.3,5.9-1.7,12.8,2.5,17.6
			c3.9,4.5,10.3,6.2,16,5.6c6.7-0.8,12.9-4.5,15.5-10.9c0.6-1.5-1.8-2.2-2.4-0.7c-3.7,9.4-17.4,11.9-25.1,6.2
			c-9.4-6.8-5.1-21.4,3.9-26.4c2.6-1.4,5.8-2.2,8.7-1.4c3,0.8,6.9,3.6,5.5,7.1C230.9,56.8,233.3,57.5,234,56L234,56z"/>
	</g>
</g>
<g>
	<g>
		<path d="M245.1,44.4c0,12,0,24.1,0,36.1c0,1.3,2.1,1.3,2.1,0c0-12,0-24.1,0-36.1C247.2,43,245.1,43,245.1,44.4L245.1,44.4z"/>
	</g>
</g>
<g>
	<g>
		<path d="M270.9,45c-7.5-0.7-12.2,6.7-14.5,12.8c-2.3,5.9-3.6,13.6-0.7,19.5c1.3,2.7,3.8,4.7,6.9,5.1c4.1,0.6,7.8-1.7,10.6-4.5
			c5.7-5.9,8.8-15.5,6.2-23.4c-2.5-7.7-11.4-13.5-19.3-10.4c-1.3,0.5-0.7,2.6,0.6,2.1c6-2.4,12.8,1.3,15.8,6.7
			c3.5,6.7,1.2,15.1-2.8,21c-2,2.9-5,5.7-8.5,6.3c-2.8,0.4-5.5-0.8-7-3.2c-2.9-4.6-1.9-11.3-0.4-16.2c1.8-5.9,5.9-14.3,13.3-13.6
			C272.3,47.3,272.3,45.1,270.9,45L270.9,45z"/>
	</g>
</g>
<g>
	<g>
		<path d="M285.3,80.5c1.6-12.1,5.1-24,10.4-35c-0.7-0.1-1.3-0.2-2-0.3c2.7,6.6,5.5,13.1,8.3,19.6c1.4,3.3,2.9,6.5,4.4,9.8
			c1.2,2.6,2.4,5.3,4.5,7.3c1.6,1.6,3.8,2.8,6.1,2.1c2.7-0.9,3.6-3.8,4.4-6.3c2.3-6.5,4.4-13.2,6.2-19.9c2.1-7.6,3.8-15.4,5.1-23.1
			c0.2-1.4-1.9-2-2.1-0.6c-2.2,12.6-5.3,25-9.3,37.1c-0.9,2.9-1.8,6-3.1,8.7c-1.3,2.6-3.6,2.4-5.5,0.6c-2-1.8-3.1-4.3-4.2-6.7
			c-1.4-3-2.7-5.9-4-8.9c-3-6.8-5.9-13.6-8.7-20.4c-0.3-0.8-1.6-1.2-2-0.3c-5.4,11.2-9,23.2-10.6,35.5
			C283,81.3,285.1,81.9,285.3,80.5L285.3,80.5z"/>
	</g>
</g>
<g>
	<g>
		<path d="M271.2,36.4c7.3-2.4,13.9-6.4,19.5-11.7c1-1-0.5-2.5-1.6-1.6c-5.3,5-11.6,8.8-18.5,11.1C269.3,34.7,269.9,36.8,271.2,36.4
			L271.2,36.4z"/>
	</g>
</g>
</svg>
